<?xml version="1.0" encoding="UTF-8" standalone="no"?>
<!DOCTYPE svg PUBLIC "-//W3C//DTD SVG 1.1//EN"
 "http://www.w3.org/Graphics/SVG/1.1/DTD/svg11.dtd">
<!-- Generated by graphviz version 2.47.0 (20210316.0004)
 -->
<!-- Title: dependencies Pages: 1 -->
<svg width="1465pt" height="284pt"
 viewBox="0.00 0.00 1465.00 284.00" xmlns="http://www.w3.org/2000/svg" xmlns:xlink="http://www.w3.org/1999/xlink">
<g id="graph0" class="graph" transform="scale(1 1) rotate(0) translate(4 280)">
<title>dependencies</title>
<polygon fill="white" stroke="transparent" points="-4,4 -4,-280 1461,-280 1461,4 -4,4"/>
<text text-anchor="start" x="707.51" y="-42.4" font-family="Times-12" font-weight="bold" font-size="14.00">Legend</text>
<polygon fill="#ffffb3" stroke="transparent" points="494.5,-10 494.5,-30 514.5,-30 514.5,-10 494.5,-10"/>
<text text-anchor="start" x="518.13" y="-15.4" font-family="Times-12" font-size="14.00"> &#160;Declarations</text>
<polygon fill="#8dd3c7" stroke="transparent" points="607.5,-10 607.5,-30 627.5,-30 627.5,-10 607.5,-10"/>
<text text-anchor="start" x="631.23" y="-15.4" font-family="Times-12" font-size="14.00"> &#160;Module</text>
<polygon fill="#80b1d3" stroke="transparent" points="693.5,-10 693.5,-30 713.5,-30 713.5,-10 693.5,-10"/>
<text text-anchor="start" x="717.28" y="-15.4" font-family="Times-12" font-size="14.00"> &#160;Bootstrap</text>
<polygon fill="#fdb462" stroke="transparent" points="790.5,-10 790.5,-30 810.5,-30 810.5,-10 790.5,-10"/>
<text text-anchor="start" x="814.17" y="-15.4" font-family="Times-12" font-size="14.00"> &#160;Providers</text>
<polygon fill="#fb8072" stroke="transparent" points="886.5,-10 886.5,-30 906.5,-30 906.5,-10 886.5,-10"/>
<text text-anchor="start" x="910.23" y="-15.4" font-family="Times-12" font-size="14.00"> &#160;Exports</text>
<g id="clust1" class="cluster">
<title>cluster_HomeModule</title>
<polygon fill="none" stroke="black" stroke-dasharray="1,5" points="8,-70 8,-268 1449,-268 1449,-70 8,-70"/>
</g>
<g id="clust2" class="cluster">
<title>cluster_HomeModule_declarations</title>
<polygon fill="none" stroke="black" points="303,-78 303,-130 1441,-130 1441,-78 303,-78"/>
</g>
<g id="clust10" class="cluster">
<title>cluster_HomeModule_imports</title>
<polygon fill="none" stroke="black" points="16,-78 16,-130 295,-130 295,-78 16,-78"/>
</g>
<g id="clust11" class="cluster">
<title>cluster_HomeModule_exports</title>
<polygon fill="none" stroke="black" points="643,-208 643,-260 779,-260 779,-208 643,-208"/>
</g>
<!-- CarBrandsComponent -->
<g id="node1" class="node">
<title>CarBrandsComponent</title>
<polygon fill="#ffffb3" stroke="black" points="1432.7,-122 1291.3,-122 1291.3,-86 1432.7,-86 1432.7,-122"/>
<text text-anchor="middle" x="1362" y="-99.8" font-family="Times,serif" font-size="14.00">CarBrandsComponent</text>
</g>
<!-- HomeModule -->
<g id="node8" class="node">
<title>HomeModule</title>
<polygon fill="#8dd3c7" stroke="black" points="757.76,-187 754.76,-191 733.76,-191 730.76,-187 664.24,-187 664.24,-151 757.76,-151 757.76,-187"/>
<text text-anchor="middle" x="711" y="-164.8" font-family="Times,serif" font-size="14.00">HomeModule</text>
</g>
<!-- CarBrandsComponent&#45;&gt;HomeModule -->
<g id="edge1" class="edge">
<title>CarBrandsComponent&#45;&gt;HomeModule</title>
<path fill="none" stroke="black" d="M1362,-122.01C1362,-144.49 1362,-180 1362,-180 1362,-180 767.82,-180 767.82,-180"/>
<polygon fill="black" stroke="black" points="767.82,-176.5 757.82,-180 767.82,-183.5 767.82,-176.5"/>
</g>
<!-- CarsListComponent -->
<g id="node2" class="node">
<title>CarsListComponent</title>
<polygon fill="#ffffb3" stroke="black" points="1273.27,-122 1144.73,-122 1144.73,-86 1273.27,-86 1273.27,-122"/>
<text text-anchor="middle" x="1209" y="-99.8" font-family="Times,serif" font-size="14.00">CarsListComponent</text>
</g>
<!-- CarsListComponent&#45;&gt;HomeModule -->
<g id="edge2" class="edge">
<title>CarsListComponent&#45;&gt;HomeModule</title>
<path fill="none" stroke="black" d="M1209,-122.13C1209,-142.57 1209,-173 1209,-173 1209,-173 767.85,-173 767.85,-173"/>
<polygon fill="black" stroke="black" points="767.85,-169.5 757.85,-173 767.85,-176.5 767.85,-169.5"/>
</g>
<!-- CarsdataCardComponent -->
<g id="node3" class="node">
<title>CarsdataCardComponent</title>
<polygon fill="#ffffb3" stroke="black" points="1126.52,-122 969.48,-122 969.48,-86 1126.52,-86 1126.52,-122"/>
<text text-anchor="middle" x="1048" y="-99.8" font-family="Times,serif" font-size="14.00">CarsdataCardComponent</text>
</g>
<!-- CarsdataCardComponent&#45;&gt;HomeModule -->
<g id="edge3" class="edge">
<title>CarsdataCardComponent&#45;&gt;HomeModule</title>
<path fill="none" stroke="black" d="M1048,-122.27C1048,-140.56 1048,-166 1048,-166 1048,-166 767.86,-166 767.86,-166"/>
<polygon fill="black" stroke="black" points="767.86,-162.5 757.86,-166 767.86,-169.5 767.86,-162.5"/>
</g>
<!-- DataNotFoundComponent -->
<g id="node4" class="node">
<title>DataNotFoundComponent</title>
<polygon fill="#ffffb3" stroke="black" points="951.04,-122 786.96,-122 786.96,-86 951.04,-86 951.04,-122"/>
<text text-anchor="middle" x="869" y="-99.8" font-family="Times,serif" font-size="14.00">DataNotFoundComponent</text>
</g>
<!-- DataNotFoundComponent&#45;&gt;HomeModule -->
<g id="edge4" class="edge">
<title>DataNotFoundComponent&#45;&gt;HomeModule</title>
<path fill="none" stroke="black" d="M869,-122.01C869,-138.05 869,-159 869,-159 869,-159 767.98,-159 767.98,-159"/>
<polygon fill="black" stroke="black" points="767.98,-155.5 757.98,-159 767.98,-162.5 767.98,-155.5"/>
</g>
<!-- HomeComponent -->
<g id="node5" class="node">
<title>HomeComponent</title>
<polygon fill="#ffffb3" stroke="black" points="768.55,-122 653.45,-122 653.45,-86 768.55,-86 768.55,-122"/>
<text text-anchor="middle" x="711" y="-99.8" font-family="Times,serif" font-size="14.00">HomeComponent</text>
</g>
<!-- HomeComponent&#45;&gt;HomeModule -->
<g id="edge5" class="edge">
<title>HomeComponent&#45;&gt;HomeModule</title>
<path fill="none" stroke="black" d="M711,-122.11C711,-122.11 711,-140.99 711,-140.99"/>
<polygon fill="black" stroke="black" points="707.5,-140.99 711,-150.99 714.5,-140.99 707.5,-140.99"/>
</g>
<!-- PageNotFoundComponent -->
<g id="node6" class="node">
<title>PageNotFoundComponent</title>
<polygon fill="#ffffb3" stroke="black" points="635.82,-122 470.18,-122 470.18,-86 635.82,-86 635.82,-122"/>
<text text-anchor="middle" x="553" y="-99.8" font-family="Times,serif" font-size="14.00">PageNotFoundComponent</text>
</g>
<!-- PageNotFoundComponent&#45;&gt;HomeModule -->
<g id="edge6" class="edge">
<title>PageNotFoundComponent&#45;&gt;HomeModule</title>
<path fill="none" stroke="black" d="M553,-122.01C553,-138.05 553,-159 553,-159 553,-159 654.02,-159 654.02,-159"/>
<polygon fill="black" stroke="black" points="654.02,-162.5 664.02,-159 654.02,-155.5 654.02,-162.5"/>
</g>
<!-- PaginationComponent -->
<g id="node7" class="node">
<title>PaginationComponent</title>
<polygon fill="#ffffb3" stroke="black" points="452.72,-122 311.28,-122 311.28,-86 452.72,-86 452.72,-122"/>
<text text-anchor="middle" x="382" y="-99.8" font-family="Times,serif" font-size="14.00">PaginationComponent</text>
</g>
<!-- PaginationComponent&#45;&gt;HomeModule -->
<g id="edge7" class="edge">
<title>PaginationComponent&#45;&gt;HomeModule</title>
<path fill="none" stroke="black" d="M382,-122.27C382,-140.56 382,-166 382,-166 382,-166 654.21,-166 654.21,-166"/>
<polygon fill="black" stroke="black" points="654.21,-169.5 664.21,-166 654.21,-162.5 654.21,-169.5"/>
</g>
<!-- HomeComponent  -->
<g id="node11" class="node">
<title>HomeComponent </title>
<polygon fill="#fb8072" stroke="black" points="770.54,-252 651.46,-252 651.46,-216 770.54,-216 770.54,-252"/>
<text text-anchor="middle" x="711" y="-229.8" font-family="Times,serif" font-size="14.00">HomeComponent </text>
</g>
<!-- HomeModule&#45;&gt;HomeComponent  -->
<g id="edge10" class="edge">
<title>HomeModule&#45;&gt;HomeComponent </title>
<path fill="none" stroke="black" stroke-dasharray="5,2" d="M711,-187.11C711,-187.11 711,-205.99 711,-205.99"/>
<polygon fill="black" stroke="black" points="707.5,-205.99 711,-215.99 714.5,-205.99 707.5,-205.99"/>
</g>
<!-- HomeRoutingModule -->
<g id="node9" class="node">
<title>HomeRoutingModule</title>
<polygon fill="#8dd3c7" stroke="black" points="287.38,-122 284.38,-126 263.38,-126 260.38,-122 148.62,-122 148.62,-86 287.38,-86 287.38,-122"/>
<text text-anchor="middle" x="218" y="-99.8" font-family="Times,serif" font-size="14.00">HomeRoutingModule</text>
</g>
<!-- HomeRoutingModule&#45;&gt;HomeModule -->
<g id="edge8" class="edge">
<title>HomeRoutingModule&#45;&gt;HomeModule</title>
<path fill="none" stroke="black" d="M218,-122.13C218,-142.57 218,-173 218,-173 218,-173 654.18,-173 654.18,-173"/>
<polygon fill="black" stroke="black" points="654.18,-176.5 664.18,-173 654.18,-169.5 654.18,-176.5"/>
</g>
<!-- MaterialModule -->
<g id="node10" class="node">
<title>MaterialModule</title>
<polygon fill="#8dd3c7" stroke="black" points="130.47,-122 127.47,-126 106.47,-126 103.47,-122 23.53,-122 23.53,-86 130.47,-86 130.47,-122"/>
<text text-anchor="middle" x="77" y="-99.8" font-family="Times,serif" font-size="14.00">MaterialModule</text>
</g>
<!-- MaterialModule&#45;&gt;HomeModule -->
<g id="edge9" class="edge">
<title>MaterialModule&#45;&gt;HomeModule</title>
<path fill="none" stroke="black" d="M77,-122.01C77,-144.49 77,-180 77,-180 77,-180 654.12,-180 654.12,-180"/>
<polygon fill="black" stroke="black" points="654.12,-183.5 664.12,-180 654.12,-176.5 654.12,-183.5"/>
</g>
</g>
</svg>
